<svg id="Layer_1" data-name="Layer 1" xmlns="http://www.w3.org/2000/svg" viewBox="0 0 1080 1080"><defs><style>.cls-1{fill:#042340;}.cls-2{fill:#2e88d9;}.cls-3{fill:#0f518c;}.cls-4{fill:#25e6d9;}.cls-5{fill:#f44d4d;}</style></defs><g id="Harmony"><path class="cls-1" d="M112.58,611.14V672.7h50.3V611.14h41.44V770.42H162.88v-61.8h-50.3v61.8H71.38V611.14Z"/><path class="cls-1" d="M224.44,714.61c0-42.15,22-70.42,64.9-70.42,8.39,0,27.07,2.16,46.23,9.59v90.77l2.64,25.87H304.43l-1.91-11.26-1.2-.24c-6.47,9.34-16.29,15.33-29.94,15.33C234.5,774.25,224.44,745.51,224.44,714.61Zm71.61,17.25V674.13a29.47,29.47,0,0,0-11-1.91c-15.8,0-21.07,18.92-21.07,39.52,0,18.44,3.35,33.77,17.24,33.77C290.54,745.51,296.05,738.8,296.05,731.86Z"/><path class="cls-1" d="M357.85,648h32.09l3.36,16.76c6.22-15.09,18.2-20.6,28-20.6,6.71,0,14.37,1.44,19.64,4.55l-5.51,33.54c-5.27-2.4-11.25-4.31-17.24-4.31-10.3,0-17.25,6.22-17.49,17.48v75h-40V671Z"/><path class="cls-1" d="M451.5,648h32.81L487,660.72c7.42-10.06,17.24-16.53,33.05-16.53,14.13,0,25.15,5,31.62,15.81,7.18-9.58,17.48-15.81,32.81-15.81,23.71,0,37.84,13.42,37.84,42.64v83.59h-40V693.53c0-10.77-1.19-18.68-11-18.68-9.1,0-13.18,7.43-13.18,17.73v77.84h-40V693.53c0-10.53-1-18.68-10.77-18.68-9.59,0-13.42,7.43-13.42,18v77.6H454.13v-98Z"/><path class="cls-1" d="M640,710.06c0-50.3,32.81-65.87,58.92-65.87,18.92,0,55.81,5.75,55.81,62,0,45-26.35,68-59.4,68C661.32,774.25,640,753.65,640,710.06Zm73.53-.24c0-24.43-4.07-36.88-16.29-36.88C686,672.94,681,685.87,681,705.51c0,20.84,1.91,39.52,16.28,39.52C709,745,713.53,733.29,713.53,709.82Z"/><path class="cls-1" d="M770.54,648h33.05L806,661c7.67-10.3,18.93-16.77,35-16.77,23.48,0,38.33,13.18,38.33,42.4v83.83h-40V693.53c0-11.25-1.44-18.68-11-18.68s-15.33,7.67-15.33,17.73v77.84H773.17v-98Z"/><path class="cls-1" d="M908.5,801.08c0-16.29,8.62-29.46,23.71-40.72-20.36-3.83-29.94-15.57-29.94-38.08V648h40v72.33c0,10.78,1,17.72,12.45,17.72,6.71,0,13.66-6.22,13.66-16.28V648h40.24v95.56c0,6.47-.48,26.11-1.44,33.3-2.88,36.88-21.8,57.24-57,57.24C922.63,834.13,908.5,821.44,908.5,801.08Zm60.83-18.68V758.92c-12.69,7-26.1,18.45-26.1,34.73,0,8.15,4.31,11.74,11.49,11.74C965.5,805.39,969.33,797.25,969.33,782.4Z"/><polygon class="cls-2" points="581.04 282.11 581.04 369.39 492.98 457.45 492.98 282.11 581.04 282.11"/><polygon class="cls-3" points="492.98 326.81 492.98 422.46 452.28 422.46 452.28 491.37 404.91 540.28 404.91 326.81 492.98 326.81"/><polygon class="cls-4" points="669.11 245.87 669.11 454.93 581.04 369.39 581.04 245.87 669.11 245.87"/><rect class="cls-5" x="557.78" y="496.59" width="46.52" height="46.52"/></g></svg>