<?xml version="1.0" encoding="utf-8"?>
<!-- Generator: Adobe Illustrator 26.0.3, SVG Export Plug-In . SVG Version: 6.00 Build 0)  -->
<svg version="1.1" id="Layer_1" xmlns="http://www.w3.org/2000/svg" xmlns:xlink="http://www.w3.org/1999/xlink" x="0px" y="0px"
	 viewBox="0 0 850 850" style="enable-background:new 0 0 850 850;" xml:space="preserve">
<style type="text/css">
	.st0{fill-rule:evenodd;clip-rule:evenodd;fill:#CAD64A;}
	.st1{fill:#E95321;}
	.st2{fill:#0980C1;}
</style>
<g>
	<path class="st0" d="M765,155.5c8.5-1.7,17.3-1.3,25.6,1.2c12.7,3.6,23.2,11.3,28.1,20.5c2.9,5.4,3.5,10.9,1.9,15.9L712.1,516.8
		c-4.6,14-26.2,20.7-47.1,14.8c-12.7-3.6-23.2-11.3-28.1-20.5c-2.9-5.4-3.5-10.9-1.9-15.9l108.5-323.8
		C746.1,163.3,754.4,157.7,765,155.5z"/>
	<path class="st1" d="M121.8,681.4H112v-29.2h-10.4v25.1c0,1-0.4,2-1.1,2.7c-0.7,0.9-1.8,1.4-3,1.3H86.9v-7.9h4.9v-29.1h25
		c3.3,0,4.9,1.7,4.9,5.2L121.8,681.4z"/>
	<path class="st1" d="M159.1,681.4h-17v-7.9h7.1v-21.2h-9.3l-3.8,29.1h-9.8v-0.2l4-28.9h-4.1v-7.9h26.4c4.2,0,6.4,2.1,6.4,6.3
		L159.1,681.4z"/>
	<path class="st1" d="M193.9,652.3h-4.4v29.1h-9.7v-29.1h-16.7v-7.9h30.8L193.9,652.3z"/>
	<path class="st1" d="M232.1,650.7c0,1.4-0.2,2.8-0.8,4.2l-10.6,26.6h-9.6V680l11.3-27.7h-24.1v-7.9h33.9V650.7z M208.2,695.5h-9.8
		V658h9.8V695.5z"/>
	<path class="st1" d="M268.9,681.4h-9.8v-29.2h-10.4v25.1c0,1-0.4,2-1.1,2.7c-0.7,0.9-1.8,1.4-3,1.3h-10.5v-7.9h4.9v-29.1h25
		c3.3,0,4.9,1.7,4.9,5.2V681.4z"/>
	<path class="st1" d="M306.2,681.4h-17v-7.9h7.1v-21.2h-9.3l-3.8,29.1h-9.8v-0.2l4-28.9h-4.1v-7.9h26.4c4.2,0,6.4,2.1,6.4,6.3
		L306.2,681.4z"/>
	<path class="st1" d="M353.4,681.4h-9.8v-29.2h-20.6v-7.9h25.5c3.3,0,4.9,1.7,4.9,5.2L353.4,681.4z M333.1,681.4h-10v-22.5h10V681.4
		z"/>
	<path class="st1" d="M368.8,666.2h-9.8v-21.8h9.8L368.8,666.2z"/>
	<path class="st1" d="M399.8,681.4h-9.7l-2.7-12.4h-2.2l-4.4,12.4h-9.8v-1l5.5-14.6c0.2-0.8,0.6-1.5,1.2-2.1
		c0.7-0.3,1.5-0.4,2.2-0.4h6.3l-2.4-11.1h-7.1v-7.9h11.8c0.6,0,1.1,0,1.7,0.2c0.9,0.2,1.6,0.8,2,1.6c0.2,0.5,0.4,1,0.5,1.6
		L399.8,681.4z"/>
	<path class="st1" d="M412.6,681.4h-9.8v-37h9.8V681.4z"/>
	<path class="st1" d="M446.5,650.7c0,1-0.3,1.9-0.6,2.8l-11,28h-10.1v-0.9l11.5-28.3h-19.6v-16.8h9.8v8.8h20L446.5,650.7z"/>
	<path class="st1" d="M460.9,681.4h-9.8v-37h9.8L460.9,681.4z"/>
	<path class="st1" d="M482.8,675.1c0.1,1.7-0.5,3.4-1.7,4.6c-1.2,1.2-2.9,1.8-4.6,1.7h-11.7v-7.9h8.2v-21.2h-6.6v-7.9h16.4V675.1z"
		/>
	<path class="st1" d="M513.8,673.8c0,1.2-0.1,2.3-0.4,3.5c-0.3,0.9-0.7,1.7-1.4,2.4c-0.7,0.7-1.5,1.1-2.4,1.4
		c-1.2,0.3-2.3,0.5-3.5,0.4h-18.7v-7.9h16.7v-21.2h-16.7v-7.9h17.9c3,0,5.2,0.6,6.5,1.7c1.3,1.1,2,3.2,2,6.3V673.8z"/>
	<path class="st1" d="M550.6,672.6c0.1,2.3-0.7,4.6-2.2,6.3c-1.4,1.6-3.4,2.5-5.5,2.4h-15.7c-5.3,0-8-2.9-8-8.8v-28.3h9.8v29.1h11.9
		v-21.2h-6.5v-7.9h16.2V672.6z"/>
	<path class="st1" d="M576.9,666.2h-9.8v-21.8h9.8L576.9,666.2z"/>
	<path class="st1" d="M611.4,652.3h-4.3v29.1h-9.7v-29.1h-16.7v-7.9h30.8L611.4,652.3z"/>
	<path class="st1" d="M625.7,681.4h-9.8v-37h9.8V681.4z"/>
	<path class="st1" d="M662.9,681.4h-17v-7.9h7.1v-21.2h-9.3l-3.7,29.2h-9.8v-0.2l4-28.9h-4.1v-7.9h26.4c4.2,0,6.3,2.1,6.3,6.3
		L662.9,681.4z"/>
	<path class="st1" d="M678.2,666.2h-9.8v-21.8h9.8V666.2z"/>
	<path class="st1" d="M711.6,650.7c0,1-0.3,1.9-0.7,2.8l-11,28h-10.1v-0.9l11.5-28.3h-19.6v-16.8h9.8v8.8h20L711.6,650.7z"/>
	<path class="st2" d="M552.2,546.8c-1.8,5.7-2.3,11.7-1.4,17.5c1,5.9,3.2,11.5,6.6,16.4c3.9,5.6,8.8,10.4,14.4,14.1
		c6.9,4.6,14.5,8.1,22.5,10.5c7.8,2.5,15.9,3.8,24.1,3.8c6.8,0,13.6-1.2,20-3.6c5.6-2.2,10.7-5.5,14.9-9.9c4.1-4.3,7.2-9.6,8.9-15.3
		c1.8-5.7,2.3-11.8,1.4-17.7c-0.9-5.9-3.2-11.6-6.5-16.5c-3.9-5.6-8.8-10.5-14.4-14.3c-6.7-4.6-14.2-8.2-22-10.4
		c-7.9-2.6-16.2-3.8-24.5-3.8c-6.9,0.1-13.7,1.3-20.1,3.8c-5.6,2.2-10.7,5.6-14.9,10C557,535.8,554,541.1,552.2,546.8z"/>
	<path class="st2" d="M760.9,252.4c2.6-7.1,1.9-14.9-1.9-22.4c-5.4-10.7-16.6-19.6-30-23.7l-19.3-5.9c-13.4-4.1-27.7-3.1-38.3,2.8
		c-7.5,4.2-12.5,10.2-14.4,17.5l-62.8,234.1c-4.7,17.4,9.9,37.1,32.5,44s46-1.3,52.1-18.2L760.9,252.4z"/>
	<path class="st2" d="M73.5,681.6H28.6V367.5h44.9V681.6z"/>
	<path class="st2" d="M158.1,609.3h-44.9V367.5h44.9V609.3z"/>
	<path class="st2" d="M287.5,408.3h-22.8v201h-44.9v-201h-26.5v-40.8h94.3V408.3z"/>
	<path class="st2" d="M367.6,609.3h-44.9V367.5h44.9V609.3z"/>
	<path class="st2" d="M542.6,397.2l-14.5,171.5c-2.2,27.1-16.3,40.6-42.1,40.6h-55.1v-40.6h53.6L497,408.3h-95.8V304h44.2v63.5h97.2
		L542.6,397.2z"/>
</g>
</svg>
