<?xml version="1.0" encoding="utf-8"?>
<!-- Generator: Adobe Illustrator 26.0.2, SVG Export Plug-In . SVG Version: 6.00 Build 0)  -->
<svg version="1.1" xmlns="http://www.w3.org/2000/svg" xmlns:xlink="http://www.w3.org/1999/xlink" x="0px" y="0px"
	 viewBox="0 0 850.4 850.4" style="enable-background:new 0 0 850.4 850.4;" xml:space="preserve">
<style type="text/css">
	.st0{fill:url(#SVGID_1_);}
	.st1{fill:#D65614;}
	
		.st2{fill:url(#SVGID_00000011738446348184525580000007084933332521688218_);stroke:#000000;stroke-width:1.168;stroke-linejoin:round;stroke-miterlimit:10;}
	
		.st3{fill:url(#SVGID_00000164474332898029893780000000869083279274856594_);stroke:#000000;stroke-width:1.1684;stroke-miterlimit:10;}
	.st4{fill:url(#SVGID_00000025418783973887565630000013194011138276844690_);stroke:#000000;stroke-miterlimit:10;}
	.st5{fill:#FFFFFF;stroke:#000000;stroke-width:1.1684;stroke-miterlimit:10;}
	.st6{fill:url(#SVGID_00000005246896951841908360000002607000469624241543_);stroke:#000000;stroke-miterlimit:10;}
	.st7{fill:url(#SVGID_00000026141252435171005900000000593100277862976678_);}
	
		.st8{fill:url(#SVGID_00000172401269677960126380000013318905544439330454_);stroke:#000000;stroke-width:1.6424;stroke-miterlimit:10;}
</style>
<g id="Layer_3">
</g>
<g id="Layer_2">
	<g>
		<linearGradient id="SVGID_1_" gradientUnits="userSpaceOnUse" x1="424.7906" y1="554.5005" x2="424.7906" y2="707.545">
			<stop  offset="0" style="stop-color:#000000"/>
			<stop  offset="1" style="stop-color:#683C11"/>
		</linearGradient>
		<path class="st0" d="M123.5,623.7l69.5-68.3c3-1.9,5.5-0.7,5.5,2.6v149.4h-24v-96.8l-51,46.1l-51-46.1v96.8h-24v0h0V558
			c0-3.3,2.5-4.5,5.5-2.6L123.5,623.7z M224.9,557.5h24v149.9h-24V557.5z M377.1,557.5v24h-42v125.9h-24V581.5h-42v-24H377.1z
			 M511.8,557.6v128.9c0,11.5-9.4,21-21,21h-78c-11.5,0-21-9.4-21-21V557.6h24v125.9h72V557.6H511.8z M614.5,620.3h21
			c11.5,0,21,9.4,21,21v45c0,11.5-9.4,21-21,21h-78c-11.5,0-21-9.4-21-21V578.3c0-11.5,9.4-21,21-21h98.9v24h-95.9v104.9h72v-42h-18
			L614.5,620.3z M801,578.5v107.9c0,11.5-9.4,21-21,21h-78c-11.5,0-21-9.4-21-21V578.5c0-11.5,9.4-21,21-21h78
			C791.6,557.5,801,566.9,801,578.5z M777,581.5h-72v101.9h72V581.5z"/>
		<g>
			<path class="st1" d="M75.8,748v1.7h-6.6v-2c0-5.6-2.1-8.9-7.1-8.9S55,742,55,747.5c0,14,20.9,15.3,20.9,32.8
				c0,9.4-4.5,15.6-14.1,15.6s-14-6.1-14-15.6v-3.6h6.5v3.9c0,5.6,2.3,8.9,7.3,8.9s7.3-3.3,7.3-8.9c0-13.9-20.8-15.2-20.8-32.8
				c0-9.6,4.5-15.6,13.8-15.6C71.4,732.4,75.8,738.5,75.8,748z"/>
			<path class="st1" d="M89.5,782.8L87,795.3h-6.4L92.6,733h10.1l11.9,62.3h-6.9l-2.4-12.5H89.5z M90.3,776.8h13.9l-7-36L90.3,776.8
				z"/>
			<path class="st1" d="M120.4,795.3V733h6.9v56h17.8v6.3H120.4z"/>
			<path class="st1" d="M173,760.6v6.2h-15.2V789h18.7v6.3h-25.6V733h25.6v6.3h-18.7v21.3H173z"/>
			<path class="st1" d="M210.3,748v1.7h-6.6v-2c0-5.6-2.1-8.9-7.1-8.9s-7.1,3.3-7.1,8.8c0,14,20.9,15.3,20.9,32.8
				c0,9.4-4.5,15.6-14.1,15.6s-14-6.1-14-15.6v-3.6h6.5v3.9c0,5.6,2.3,8.9,7.3,8.9s7.3-3.3,7.3-8.9c0-13.9-20.8-15.2-20.8-32.8
				c0-9.6,4.5-15.6,13.8-15.6C205.9,732.4,210.3,738.5,210.3,748z"/>
			<path class="st1" d="M230.6,748c0-9.5,4.7-15.7,14.2-15.7c9.6,0,14.3,6.1,14.3,15.7v32.2c0,9.4-4.7,15.7-14.3,15.7
				c-9.5,0-14.2-6.2-14.2-15.7V748z M237.5,780.6c0,5.7,2.4,9,7.4,9c5.1,0,7.4-3.3,7.4-9v-32.9c0-5.6-2.3-9-7.4-9
				c-5,0-7.4,3.4-7.4,9V780.6z"/>
			<path class="st1" d="M280.1,733c9.8,0,13.9,5,13.9,14.2v5.1c0,6.9-2.4,11.1-7.7,12.8c5.7,1.7,7.8,6.3,7.8,13v9.7
				c0,2.8,0.1,5.3,1.2,7.5h-7c-0.8-1.8-1.2-3.4-1.2-7.6V778c0-7-3.3-9.3-9.1-9.3h-4.9v26.6h-6.9V733H280.1z M278.3,762.4
				c5.5,0,8.8-1.8,8.8-8.5v-6c0-5.6-2-8.5-7.2-8.5h-6.8v23.1H278.3z"/>
			<path class="st1" d="M308.7,733v62.3h-6.9V733H308.7z"/>
			<path class="st1" d="M338.4,760.6v6.2h-15.2V789h18.7v6.3h-25.6V733h25.6v6.3h-18.7v21.3H338.4z"/>
			<path class="st1" d="M354.8,795.3h-6.2V733h8.8l14.4,45v-45h6.1v62.3h-7.2l-15.9-50.4V795.3z"/>
			<path class="st1" d="M394.5,795.3v-56h-11.5V733h29.8v6.3h-11.5v56H394.5z"/>
			<path class="st1" d="M440.2,760.6v6.2H425V789h18.7v6.3H418V733h25.6v6.3H425v21.3H440.2z"/>
			<path class="st1" d="M465.1,733c9.7,0,14.2,5.9,14.2,15.5v31.4c0,9.5-4.5,15.4-14.2,15.4h-14.6V733H465.1z M465,789
				c5,0,7.4-3.1,7.4-8.8v-32c0-5.7-2.4-8.8-7.5-8.8h-7.5V789H465z"/>
			<path class="st1" d="M523.4,795.2h-6.7l-10.3-49.6v49.7h-6.1V733h9.7l10.2,49.8l9.9-49.8h9.7v62.3h-6.6v-50.1L523.4,795.2z"/>
			<path class="st1" d="M554.5,782.8l-2.4,12.5h-6.4l11.9-62.3h10.1l11.9,62.3h-6.9l-2.4-12.5H554.5z M555.4,776.8h13.9l-7-36
				L555.4,776.8z"/>
			<path class="st1" d="M599.3,733c9.8,0,13.9,5,13.9,14.2v5.1c0,6.9-2.4,11.1-7.7,12.8c5.7,1.7,7.8,6.3,7.8,13v9.7
				c0,2.8,0.1,5.3,1.2,7.5h-7c-0.8-1.8-1.2-3.4-1.2-7.6V778c0-7-3.3-9.3-9.1-9.3h-4.9v26.6h-6.9V733H599.3z M597.5,762.4
				c5.5,0,8.8-1.8,8.8-8.5v-6c0-5.6-2-8.5-7.2-8.5h-6.8v23.1H597.5z"/>
			<path class="st1" d="M631.5,768.3l-3.6,6.1v20.9h-6.9V733h6.9v30.1l16.6-30.1h7l-15.8,28.4l16.3,33.9h-7.1L631.5,768.3z"/>
			<path class="st1" d="M680,760.6v6.2h-15.2V789h18.7v6.3h-25.6V733h25.6v6.3h-18.7v21.3H680z"/>
			<path class="st1" d="M699.3,795.3v-56h-11.5V733h29.8v6.3h-11.5v56H699.3z"/>
			<path class="st1" d="M729.7,733v62.3h-6.9V733H729.7z"/>
			<path class="st1" d="M743.4,795.3h-6.2V733h8.8l14.4,45v-45h6.1v62.3h-7.2l-15.9-50.4V795.3z"/>
			<path class="st1" d="M801.6,748v5.3H795v-5.7c0-5.6-2.2-9-7.3-9c-5,0-7.3,3.4-7.3,9v32.9c0,5.6,2.3,9,7.3,9c5.1,0,7.3-3.4,7.3-9
				v-12.5h-6.4v-6.2h13v18.3c0,9.4-4.5,15.7-14.1,15.7c-9.5,0-14-6.2-14-15.7V748c0-9.4,4.5-15.7,14-15.7
				C797.2,732.4,801.6,738.6,801.6,748z"/>
		</g>
	</g>
</g>
<g id="Layer_4">
	<g id="Layer_1">
		<g>
			<g>
				
					<radialGradient id="SVGID_00000101821711293608725960000002047360535437034934_" cx="513.6427" cy="404.4726" r="238.8331" gradientUnits="userSpaceOnUse">
					<stop  offset="1.331947e-07" style="stop-color:#EA5B0C"/>
					<stop  offset="1" style="stop-color:#BF4C06"/>
				</radialGradient>
				
					<path style="fill:url(#SVGID_00000101821711293608725960000002047360535437034934_);stroke:#000000;stroke-width:1.168;stroke-linejoin:round;stroke-miterlimit:10;" d="
					M606.6,544.8c0-4.6,0-8.8,0-13.4c0-108.6-87.9-197-197.1-197c-3.1,0-5.7,0-8.8,0c0.5,4.1,0.5,8.3,0.5,12.9c0,1.6,0,3.6,0,5.7
					c2.6,10.8-56.3,166.9-131.4,191.9L606.6,544.8z"/>
				
					<radialGradient id="SVGID_00000093140497028846286650000017089254325668831649_" cx="251.1363" cy="226.5535" r="204.6377" gradientUnits="userSpaceOnUse">
					<stop  offset="1.331947e-07" style="stop-color:#EA5B0C"/>
					<stop  offset="1" style="stop-color:#BF4C06"/>
				</radialGradient>
				
					<path style="fill:url(#SVGID_00000093140497028846286650000017089254325668831649_);stroke:#000000;stroke-width:1.1684;stroke-miterlimit:10;" d="
					M165.9,402.6c-12.8-6.1-24.6-13.3-35.9-22.1C82.1,344.6,50.3,287.1,50.3,223c0-83.7,52.4-155.1,125.8-183.8
					c-3.1,7.2-5.1,15.4-5.1,24.1c0,6.2,1,11.8,2.6,17.5c-1,0-2.6,0-3.6,0c-30.8,0-56,25.2-56,55.5c0,30.8,25.2,56,56,56
					c4.1,0,11.3-1,17.5-2.6c15.4-5.1,32.4-7.7,49.3-7.7c90.9,0,164.9,73.4,164.9,164.8c0,52.9-25.2,100.6-64.7,130.4
					c-17.5,13.3-41.6,22.1-65.7,22.1C215.7,499.2,170.5,456.6,165.9,402.6L165.9,402.6z"/>
				
					<linearGradient id="SVGID_00000015344829300581539560000005598520765918099125_" gradientUnits="userSpaceOnUse" x1="141.2168" y1="354.3866" x2="211.2913" y2="354.3866">
					<stop  offset="0" style="stop-color:#683C11"/>
					<stop  offset="1" style="stop-color:#000000"/>
				</linearGradient>
				<path style="fill:url(#SVGID_00000015344829300581539560000005598520765918099125_);stroke:#000000;stroke-miterlimit:10;" d="
					M165.9,402.6c-1.8-39.7,12.3-74.9,45.4-96.5c-34.4,7.7-59,41.9-70.1,82.6C149.2,393.9,154,396.8,165.9,402.6z"/>
				<path class="st5" d="M273.1,265.4c9.4,0,17,7.2,17,16.6c0,9.3-7.7,16.6-17,16.6c-8.9,0-16.6-7.2-16.6-16.6
					C256.5,272.6,264.1,265.4,273.1,265.4L273.1,265.4z"/>
				<circle cx="274.2" cy="275.4" r="8.5"/>
				
					<linearGradient id="SVGID_00000060752571223976479160000004268658938935695002_" gradientUnits="userSpaceOnUse" x1="308.6865" y1="279.0764" x2="262.148" y2="279.0764">
					<stop  offset="0" style="stop-color:#683C11"/>
					<stop  offset="1" style="stop-color:#000000"/>
				</linearGradient>
				<path style="fill:url(#SVGID_00000060752571223976479160000004268658938935695002_);stroke:#000000;stroke-miterlimit:10;" d="
					M279.4,261.7c-17.6-9.2-22.5,1.3-11.3,5.6c22.1,8.4,40.6,32.8,40.6,32.8S301.3,273.1,279.4,261.7z"/>
				
					<linearGradient id="SVGID_00000048481700245824558280000001317900032504299929_" gradientUnits="userSpaceOnUse" x1="378.9787" y1="505.8439" x2="327.9001" y2="451.0688" gradientTransform="matrix(0.9999 -1.087211e-02 1.087211e-02 0.9999 -13.8067 -17.6827)">
					<stop  offset="0" style="stop-color:#683C11"/>
					<stop  offset="1" style="stop-color:#000000"/>
				</linearGradient>
				
					<path style="fill:url(#SVGID_00000048481700245824558280000001317900032504299929_);stroke:#000000;stroke-width:1.6424;stroke-miterlimit:10;" d="
					M401.6,351.1c-1.5,50.9-25.7,96.5-63.5,125.7c-17.3,13.6-40.9,22.6-64.1,22.8c-2.1,12-5.1,35.8-4,44.3
					C432,495.7,403.8,361.8,401.6,351.1L401.6,351.1z"/>
			</g>
		</g>
	</g>
</g>
</svg>
